<?xml version="1.0" standalone="no"?><!DOCTYPE svg PUBLIC "-//W3C//DTD SVG 1.1//EN" "http://www.w3.org/Graphics/SVG/1.1/DTD/svg11.dtd"><svg t="1508124990668" class="icon" style="" viewBox="0 0 1024 1024" version="1.1" xmlns="http://www.w3.org/2000/svg" p-id="2359" xmlns:xlink="http://www.w3.org/1999/xlink" width="64" height="64"><defs><style type="text/css"></style></defs><path d="M762.88 738.986c-18.773-3.413-35.84 8.534-39.253 27.307-3.414 18.773 8.533 35.841 27.307 39.254C848.213 824.32 906.24 855.04 906.24 870.4c0 3.413-5.12 8.533-18.773 18.772-18.773 11.947-46.08 23.894-81.92 34.134-76.8 22.187-180.907 34.134-291.84 34.134-110.934 0-216.747-11.947-291.84-34.134-35.84-10.24-63.146-22.187-81.92-34.134-15.36-10.239-20.48-15.359-20.48-18.772 0-13.653 52.907-42.667 141.653-61.44 18.773-3.413 30.72-22.187 25.6-40.96-1.707-18.773-20.48-30.72-39.253-25.6C126.293 768 51.2 808.96 51.2 870.4 51.2 965.974 256 1024 512 1024s460.8-58.026 460.8-153.6C972.8 807.253 892.587 764.587 762.88 738.986zM253.629 476.046l230.776 368.748c4.963 10.125 15.485 17.072 27.595 17.072 12.108 0 22.532-6.947 27.594-17.072l230.777-368.748-0.595 0c31.663-48.438 50.125-106.107 50.125-168.244C819.901 137.871 682.03 0 512 0 341.969 0 204.099 137.871 204.099 307.802c0 62.136 18.362 119.806 50.027 168.244L253.629 476.046zM512 167.451c77.521 0 140.352 62.83 140.352 140.352S589.521 448.154 512 448.154c-77.522 0-140.353-62.831-140.353-140.352S434.478 167.451 512 167.451z" fill="#f5f45c" p-id="2360"></path></svg>